<svg width="48" height="48" viewBox="0 0 48 48" fill="none" xmlns="http://www.w3.org/2000/svg">
<path d="M48 24C48 37.2548 37.2548 48 24 48C10.7452 48 0 37.2548 0 24C0 10.7452 10.7452 0 24 0C37.2548 0 48 10.7452 48 24Z" fill="#24AE7C"/>
<path d="M32.8182 28.5H28.5V32.8182H25.5V28.5H21.1818V25.5H25.5V21.1818H28.5V25.5H32.8182V28.5Z" fill="white"/>
<path d="M15 24C15 28.9706 19.0294 33 24 33C28.9706 33 33 28.9706 33 24C33 19.0294 28.9706 15 24 15C19.0294 15 15 19.0294 15 24ZM24 30C20.6863 30 18 27.3137 18 24C18 20.6863 20.6863 18 24 18C27.3137 18 30 20.6863 30 24C30 27.3137 27.3137 30 24 30Z" fill="white"/>
</svg>
