<svg width="1382" height="274" viewBox="0 0 1382 274" fill="none" xmlns="http://www.w3.org/2000/svg">
<g clip-path="url(#clip0_104_2)">
<path d="M228.318 191.036C228.318 232.062 195.143 265.237 154.117 265.237C113.091 265.237 79.9157 232.062 79.9157 191.036C79.9157 150.01 113.091 116.835 154.117 116.835C195.143 116.835 228.318 150.01 228.318 191.036ZM8.01639 257.291L8.01639 9.38721L56.7029 9.38721L56.7029 133.023C64.6493 126.31 74.3845 122.25 84.482 122.25C92.7907 122.25 100.737 124.436 107.815 128.496C115.661 132.92 122.01 139.133 126.569 146.501C131.128 153.869 133.81 162.131 134.453 170.756C135.096 179.381 133.364 187.973 129.436 195.672C125.508 203.371 119.516 209.957 112.023 214.805C104.53 219.653 95.8033 222.583 86.6682 223.361C77.5332 224.139 68.4912 222.748 60.2241 219.31C51.957 215.872 44.7303 210.518 39.294 203.743L39.294 257.291L8.01639 257.291ZM399.167 217.18C410.024 220.43 421.43 221.733 432.894 221.087C455.053 219.851 475.241 211.533 490.871 197.643C498.411 191.041 504.408 182.955 508.43 173.913C512.452 164.871 514.401 155.087 514.075 145.24C513.75 135.393 511.161 125.797 506.516 117.14C501.871 108.483 495.295 101.036 487.26 95.429C479.224 89.8222 469.96 86.223 460.057 84.945C450.154 83.667 439.998 84.7578 430.435 88.1303C420.872 91.5028 412.193 97.0543 405.132 104.288L375.405 78.932C387.893 64.9303 403.203 54.0205 420.089 47.1685C436.975 40.3165 454.981 37.7478 472.936 39.7346C490.89 41.7214 508.214 48.2016 523.513 58.5583C538.812 68.915 551.621 82.8596 560.849 99.213C570.077 115.566 575.452 133.856 576.495 152.613C577.538 171.37 574.218 190.152 566.864 207.564C559.509 224.976 548.337 240.548 534.254 253.111C520.171 265.674 503.57 274.912 485.666 280.129C467.761 285.346 448.971 286.421 430.435 283.27C411.898 280.119 394.137 272.825 378.361 261.942L399.167 217.18ZM699.539 257.291L699.539 9.38721L748.225 9.38721L748.225 257.291L699.539 257.291ZM623.364 191.036C623.364 232.062 590.188 265.237 549.162 265.237C508.136 265.237 474.961 232.062 474.961 191.036C474.961 150.01 508.136 116.835 549.162 116.835C590.188 116.835 623.364 150.01 623.364 191.036ZM878.892 257.291L878.892 9.38721L927.579 9.38721L927.579 133.023C935.525 126.31 945.26 122.25 955.358 122.25C963.666 122.25 971.613 124.436 978.691 128.496C986.537 132.92 992.885 139.133 997.445 146.501C1002.004 153.869 1004.69 162.131 1005.33 170.756C1005.97 179.381 1004.24 187.973 1000.31 195.672C996.383 203.371 990.391 209.957 982.898 214.805C975.405 219.653 966.678 222.583 957.543 223.361C948.408 224.139 939.366 222.748 931.099 219.31C922.832 215.872 915.606 210.518 910.17 203.743L910.17 257.291L878.892 257.291ZM1110.18 8.01526L1031.45 8.01526L1031.45 257.291H1080.14L1080.14 155.106L1101.41 155.106C1123.57 155.106 1143.76 163.424 1159.39 177.314C1167.05 184.09 1173.23 192.3 1177.56 201.424C1181.89 210.548 1184.27 220.378 1184.58 230.378L1184.58 257.291H1233.26L1233.26 226.756C1232.99 211.776 1227.42 197.355 1217.38 185.161C1207.34 172.967 1193.36 163.53 1177.16 157.989C1189.51 149.955 1198.81 138.601 1204.03 125.438C1209.25 112.275 1210.18 97.9044 1206.69 84.1843C1203.2 70.4642 1195.42 58.0772 1184.34 48.5134C1173.25 38.9497 1159.38 32.6738 1144.3 30.5694C1129.21 28.465 1113.82 30.6401 1100.04 36.8043C1086.26 42.9686 1074.79 52.8532 1067.1 65.1764L1101.41 85.9818C1103.86 82.0233 1107.13 78.5376 1110.97 75.8398C1114.81 73.142 1119.12 71.2998 1123.68 70.4357C1128.24 69.5716 1132.96 69.7046 1137.49 70.8239C1142.02 71.9432 1146.25 73.9929 1149.9 76.8152C1153.56 79.6375 1156.54 83.1581 1158.64 87.1121C1160.73 91.0661 1161.88 95.3482 1162.01 99.7126C1162.14 104.077 1161.24 108.411 1159.38 112.441C1157.52 116.471 1154.74 120.101 1151.22 123.1C1147.69 126.099 1143.51 128.406 1138.94 129.878C1134.38 131.35 1129.56 132.004 1124.74 131.815L1080.14 131.815L1080.14 31.2255L1110.18 31.2255L1110.18 8.01526ZM1381.16 226.756L1381.16 9.38721L1332.48 9.38721L1332.48 44.0093C1322.86 35.311 1311.13 28.6601 1298.3 24.6205C1285.46 20.5809 1271.86 19.2673 1258.4 20.7876C1244.95 22.3079 1231.96 26.621 1220.35 33.4208C1208.74 40.2205 1198.81 49.3364 1191.27 60.0381C1183.73 70.7397 1178.74 82.7538 1176.71 95.3524C1174.69 107.951 1175.68 120.887 1179.62 133.023L1228.31 115.845C1227.05 111.082 1226.8 106.143 1227.57 101.27C1228.34 96.3963 1230.13 91.7052 1232.83 87.5255C1235.53 83.3458 1239.09 79.7788 1243.29 77.0858C1247.49 74.3927 1252.23 72.6372 1257.21 71.9372C1262.19 71.2373 1267.3 71.6133 1272.22 73.0441C1277.14 74.4749 1281.76 76.9329 1285.79 80.2526C1289.82 83.5724 1293.16 87.6784 1295.62 92.2965L1295.62 257.291L1344.3 257.291L1344.3 228.545C1343.89 220.846 1345.5 213.175 1348.96 206.27C1352.41 199.365 1357.61 193.447 1363.99 189.155L1381.16 226.756Z" fill="white"/>
<path d="M228.318 191.036C228.318 232.062 195.143 265.237 154.117 265.237C113.091 265.237 79.9157 232.062 79.9157 191.036C79.9157 150.01 113.091 116.835 154.117 116.835C195.143 116.835 228.318 150.01 228.318 191.036ZM8.01639 257.291L8.01639 9.38721L56.7029 9.38721L56.7029 133.023C64.6493 126.31 74.3845 122.25 84.482 122.25C92.7907 122.25 100.737 124.436 107.815 128.496C115.661 132.92 122.01 139.133 126.569 146.501C131.128 153.869 133.81 162.131 134.453 170.756C135.096 179.381 133.364 187.973 129.436 195.672C125.508 203.371 119.516 209.957 112.023 214.805C104.53 219.653 95.8033 222.583 86.6682 223.361C77.5332 224.139 68.4912 222.748 60.2241 219.31C51.957 215.872 44.7303 210.518 39.294 203.743L39.294 257.291L8.01639 257.291Z" fill="url(#paint0_linear_104_2)"/>
<path d="M399.167 217.18C410.024 220.43 421.43 221.733 432.894 221.087C455.053 219.851 475.241 211.533 490.871 197.643C498.411 191.041 504.408 182.955 508.43 173.913C512.452 164.871 514.401 155.087 514.075 145.24C513.75 135.393 511.161 125.797 506.516 117.14C501.871 108.483 495.295 101.036 487.26 95.429C479.224 89.8222 469.96 86.223 460.057 84.945C450.154 83.667 439.998 84.7578 430.435 88.1303C420.872 91.5028 412.193 97.0543 405.132 104.288L375.405 78.932C387.893 64.9303 403.203 54.0205 420.089 47.1685C436.975 40.3165 454.981 37.7478 472.936 39.7346C490.89 41.7214 508.214 48.2016 523.513 58.5583C538.812 68.915 551.621 82.8596 560.849 99.213C570.077 115.566 575.452 133.856 576.495 152.613C577.538 171.37 574.218 190.152 566.864 207.564C559.509 224.976 548.337 240.548 534.254 253.111C520.171 265.674 503.57 274.912 485.666 280.129C467.761 285.346 448.971 286.421 430.435 283.27C411.898 280.119 394.137 272.825 378.361 261.942L399.167 217.18Z" fill="url(#paint1_linear_104_2)"/>
<path d="M699.539 257.291L699.539 9.38721L748.225 9.38721L748.225 257.291L699.539 257.291Z" fill="url(#paint2_linear_104_2)"/>
<path d="M623.364 191.036C623.364 232.062 590.188 265.237 549.162 265.237C508.136 265.237 474.961 232.062 474.961 191.036C474.961 150.01 508.136 116.835 549.162 116.835C590.188 116.835 623.364 150.01 623.364 191.036Z" fill="url(#paint3_linear_104_2)"/>
<path d="M878.892 257.291L878.892 9.38721L927.579 9.38721L927.579 133.023C935.525 126.31 945.26 122.25 955.358 122.25C963.666 122.25 971.613 124.436 978.691 128.496C986.537 132.92 992.885 139.133 997.445 146.501C1002.004 153.869 1004.69 162.131 1005.33 170.756C1005.97 179.381 1004.24 187.973 1000.31 195.672C996.383 203.371 990.391 209.957 982.898 214.805C975.405 219.653 966.678 222.583 957.543 223.361C948.408 224.139 939.366 222.748 931.099 219.31C922.832 215.872 915.606 210.518 910.17 203.743L910.17 257.291L878.892 257.291Z" fill="url(#paint4_linear_104_2)"/>
<path d="M1110.18 8.01526L1031.45 8.01526L1031.45 257.291H1080.14L1080.14 155.106L1101.41 155.106C1123.57 155.106 1143.76 163.424 1159.39 177.314C1167.05 184.09 1173.23 192.3 1177.56 201.424C1181.89 210.548 1184.27 220.378 1184.58 230.378L1184.58 257.291H1233.26L1233.26 226.756C1232.99 211.776 1227.42 197.355 1217.38 185.161C1207.34 172.967 1193.36 163.53 1177.16 157.989C1189.51 149.955 1198.81 138.601 1204.03 125.438C1209.25 112.275 1210.18 97.9044 1206.69 84.1843C1203.2 70.4642 1195.42 58.0772 1184.34 48.5134C1173.25 38.9497 1159.38 32.6738 1144.3 30.5694C1129.21 28.465 1113.82 30.6401 1100.04 36.8043C1086.26 42.9686 1074.79 52.8532 1067.1 65.1764L1101.41 85.9818C1103.86 82.0233 1107.13 78.5376 1110.97 75.8398C1114.81 73.142 1119.12 71.2998 1123.68 70.4357C1128.24 69.5716 1132.96 69.7046 1137.49 70.8239C1142.02 71.9432 1146.25 73.9929 1149.9 76.8152C1153.56 79.6375 1156.54 83.1581 1158.64 87.1121C1160.73 91.0661 1161.88 95.3482 1162.01 99.7126C1162.14 104.077 1161.24 108.411 1159.38 112.441C1157.52 116.471 1154.74 120.101 1151.22 123.1C1147.69 126.099 1143.51 128.406 1138.94 129.878C1134.38 131.35 1129.56 132.004 1124.74 131.815L1080.14 131.815L1080.14 31.2255L1110.18 31.2255L1110.18 8.01526Z" fill="url(#paint5_linear_104_2)"/>
<path d="M1381.16 226.756L1381.16 9.38721L1332.48 9.38721L1332.48 44.0093C1322.86 35.311 1311.13 28.6601 1298.3 24.6205C1285.46 20.5809 1271.86 19.2673 1258.4 20.7876C1244.95 22.3079 1231.96 26.621 1220.35 33.4208C1208.74 40.2205 1198.81 49.3364 1191.27 60.0381C1183.73 70.7397 1178.74 82.7538 1176.71 95.3524C1174.69 107.951 1175.68 120.887 1179.62 133.023L1228.31 115.845C1227.05 111.082 1226.8 106.143 1227.57 101.27C1228.34 96.3963 1230.13 91.7052 1232.83 87.5255C1235.53 83.3458 1239.09 79.7788 1243.29 77.0858C1247.49 74.3927 1252.23 72.6372 1257.21 71.9372C1262.19 71.2373 1267.3 71.6133 1272.22 73.0441C1277.14 74.4749 1281.76 76.9329 1285.79 80.2526C1289.82 83.5724 1293.16 87.6784 1295.62 92.2965L1295.62 257.291L1344.3 257.291L1344.3 228.545C1343.89 220.846 1345.5 213.175 1348.96 206.27C1352.41 199.365 1357.61 193.447 1363.99 189.155L1381.16 226.756Z" fill="url(#paint6_linear_104_2)"/>
</g>
<defs>
<linearGradient id="paint0_linear_104_2" x1="154.117" y1="116.835" x2="154.117" y2="265.237" gradientUnits="userSpaceOnUse">
<stop stop-color="#24AE7C"/>
<stop offset="1" stop-color="#24AE7C" stop-opacity="0.8"/>
</linearGradient>
<linearGradient id="paint1_linear_104_2" x1="476.326" y1="38.7107" x2="476.326" y2="284.186" gradientUnits="userSpaceOnUse">
<stop stop-color="#24AE7C"/>
<stop offset="1" stop-color="#24AE7C" stop-opacity="0.8"/>
</linearGradient>
<linearGradient id="paint2_linear_104_2" x1="723.882" y1="9.38721" x2="723.882" y2="257.291" gradientUnits="userSpaceOnUse">
<stop stop-color="#24AE7C"/>
<stop offset="1" stop-color="#24AE7C" stop-opacity="0.8"/>
</linearGradient>
<linearGradient id="paint3_linear_104_2" x1="549.162" y1="116.835" x2="549.162" y2="265.237" gradientUnits="userSpaceOnUse">
<stop stop-color="#24AE7C"/>
<stop offset="1" stop-color="#24AE7C" stop-opacity="0.8"/>
</linearGradient>
<linearGradient id="paint4_linear_104_2" x1="943.435" y1="9.38721" x2="943.435" y2="257.291" gradientUnits="userSpaceOnUse">
<stop stop-color="#24AE7C"/>
<stop offset="1" stop-color="#24AE7C" stop-opacity="0.8"/>
</linearGradient>
<linearGradient id="paint5_linear_104_2" x1="1132.86" y1="8.01526" x2="1132.86" y2="257.291" gradientUnits="userSpaceOnUse">
<stop stop-color="#24AE7C"/>
<stop offset="1" stop-color="#24AE7C" stop-opacity="0.8"/>
</linearGradient>
<linearGradient id="paint6_linear_104_2" x1="1278.94" y1="9.38721" x2="1278.94" y2="257.291" gradientUnits="userSpaceOnUse">
<stop stop-color="#24AE7C"/>
<stop offset="1" stop-color="#24AE7C" stop-opacity="0.8"/>
</linearGradient>
<clipPath id="clip0_104_2">
<rect width="1381.16" height="273.673" fill="white" transform="translate(0 0.0805664)"/>
</clipPath>
</defs>
</svg>
